<?xml version="1.0" encoding="UTF-8" standalone="no"?>
<!-- Created with Inkscape (http://www.inkscape.org/) -->

<svg
   xmlns:dc="http://purl.org/dc/elements/1.1/"
   xmlns:cc="http://creativecommons.org/ns#"
   xmlns:rdf="http://www.w3.org/1999/02/22-rdf-syntax-ns#"
   xmlns:svg="http://www.w3.org/2000/svg"
   xmlns="http://www.w3.org/2000/svg"
   xmlns:xlink="http://www.w3.org/1999/xlink"
   xmlns:sodipodi="http://sodipodi.sourceforge.net/DTD/sodipodi-0.dtd"
   xmlns:inkscape="http://www.inkscape.org/namespaces/inkscape"
   width="128"
   height="128"
   id="svg3158"
   version="1.1"
   inkscape:version="0.91 r"
   sodipodi:docname="icono_2.svg"
   inkscape:export-filename="./icono.png"
   inkscape:export-xdpi="90"
   inkscape:export-ydpi="90">
  <defs
     id="defs3160">
    <linearGradient
       id="linearGradient4139"
       inkscape:collect="always">
      <stop
         id="stop4141"
         offset="0"
         style="stop-color:#00ffff;stop-opacity:1;" />
      <stop
         id="stop4143"
         offset="1"
         style="stop-color:#0079ff;stop-opacity:1" />
    </linearGradient>
    <linearGradient
       inkscape:collect="always"
       id="linearGradient4129">
      <stop
         style="stop-color:#00ffff;stop-opacity:1;"
         offset="0"
         id="stop4131" />
      <stop
         style="stop-color:#0079ff;stop-opacity:1"
         offset="1"
         id="stop4133" />
    </linearGradient>
    <linearGradient
       inkscape:collect="always"
       xlink:href="#linearGradient4129"
       id="linearGradient4135"
       x1="54.561394"
       y1="937.82062"
       x2="77.731293"
       y2="1045.2617"
       gradientUnits="userSpaceOnUse"
       gradientTransform="translate(0,-924.36218)" />
    <linearGradient
       inkscape:collect="always"
       xlink:href="#linearGradient4139"
       id="linearGradient4137"
       x1="54.561394"
       y1="937.82062"
       x2="77.731293"
       y2="1045.2617"
       gradientUnits="userSpaceOnUse"
       gradientTransform="translate(0,-924.36218)" />
  </defs>
  <sodipodi:namedview
     id="base"
     pagecolor="#ffffff"
     bordercolor="#666666"
     borderopacity="1.0"
     inkscape:pageopacity="0"
     inkscape:pageshadow="2"
     inkscape:zoom="5.3517696"
     inkscape:cx="62.209595"
     inkscape:cy="59.230634"
     inkscape:document-units="px"
     inkscape:current-layer="layer1"
     showgrid="false"
     inkscape:showpageshadow="false"
     showborder="true"
     inkscape:window-width="1594"
     inkscape:window-height="875"
     inkscape:window-x="0"
     inkscape:window-y="1"
     inkscape:window-maximized="1"
     inkscape:snap-page="true" />
  <metadata
     id="metadata3163">
    <rdf:RDF>
      <cc:Work
         rdf:about="">
        <dc:format>image/svg+xml</dc:format>
        <dc:type
           rdf:resource="http://purl.org/dc/dcmitype/StillImage" />
        <dc:title></dc:title>
      </cc:Work>
    </rdf:RDF>
  </metadata>
  <g
     inkscape:label="Capa 1"
     inkscape:groupmode="layer"
     id="layer1"
     transform="translate(0,-924.36218)">
    <path
       style="font-size:medium;font-style:normal;font-variant:normal;font-weight:normal;font-stretch:normal;text-indent:0;text-align:start;text-decoration:none;line-height:normal;letter-spacing:normal;word-spacing:normal;text-transform:none;direction:ltr;block-progression:tb;writing-mode:lr-tb;text-anchor:start;baseline-shift:baseline;color:#000000;fill:url(#linearGradient4135);fill-opacity:1;stroke:none;stroke-width:2.88849974;marker:none;visibility:visible;display:inline;overflow:visible;enable-background:accumulate;font-family:Sans;-inkscape-font-specification:Sans"
       d="M 33.273438 35.382812 C 24.462193 44.644403 20.730504 55.680839 21.345703 65.949219 C 21.983341 76.592069 26.980192 86.278866 34.273438 93.572266 C 41.56693 100.86547 51.337543 105.81472 61.994141 106.48242 C 72.304399 107.12832 83.310196 103.51744 92.632812 94.716797 L 90.197266 91.957031 C 89.138658 92.34256 87.91411 92.120108 87.064453 91.267578 C 86.125685 90.326023 85.957089 88.926372 86.527344 87.802734 L 84.236328 85.208984 C 77.101848 92.105869 69.776253 94.387525 62.71875 93.945312 C 55.519403 93.494312 48.432613 89.992069 43.111328 84.667969 C 37.788537 79.345469 34.306151 72.294469 33.876953 65.130859 C 33.455381 58.094507 35.707382 50.799575 42.679688 43.691406 L 40.154297 41.460938 C 39.032581 42.029013 37.643594 41.833516 36.699219 40.90625 C 35.848264 40.064584 35.621872 38.841692 36 37.791016 L 33.273438 35.382812 z "
       transform="translate(0,924.36218)"
       id="path3726" />
    <path
       style="font-size:medium;font-style:normal;font-variant:normal;font-weight:normal;font-stretch:normal;text-indent:0;text-align:start;text-decoration:none;line-height:normal;letter-spacing:normal;word-spacing:normal;text-transform:none;direction:ltr;block-progression:tb;writing-mode:lr-tb;text-anchor:start;baseline-shift:baseline;color:#000000;fill:url(#linearGradient4137);fill-opacity:1;stroke:none;stroke-width:2.88849974;marker:none;visibility:visible;display:inline;overflow:visible;enable-background:accumulate;font-family:Sans;-inkscape-font-specification:Sans"
       d="M 63.996094 21.460938 C 54.208723 21.417973 43.931862 25.19518 35.123047 33.539062 L 37.441406 36.164062 C 38.574693 35.583501 39.995971 35.772692 40.945312 36.695312 C 41.969974 37.755893 42.074576 39.355913 41.271484 40.5 L 43.429688 42.943359 C 50.687142 35.910148 58.173485 33.647893 65.287109 34.060547 C 72.524781 34.480397 79.490558 37.926821 84.798828 43.244141 C 90.108358 48.560191 93.541402 55.673753 93.935547 62.876953 C 94.324382 69.983135 92.080688 77.287848 84.953125 84.503906 L 87.464844 86.722656 C 88.640138 85.924092 90.263522 86.028991 91.292969 87.042969 C 92.243771 88.011669 92.404895 89.436507 91.806641 90.558594 L 94.458984 92.902344 C 103.39322 83.566313 107.13044 72.497472 106.56445 62.154297 C 105.97975 51.469097 101.12676 41.645281 93.828125 34.337891 C 86.529612 27.030371 76.713802 22.144267 66.011719 21.523438 C 65.342838 21.484636 64.670316 21.463897 63.996094 21.460938 z "
       transform="translate(0,924.36218)"
       id="path3728" />
    <path
       style="font-size:medium;font-style:normal;font-variant:normal;font-weight:normal;font-stretch:normal;text-indent:0;text-align:start;text-decoration:none;line-height:normal;letter-spacing:normal;word-spacing:normal;text-transform:none;direction:ltr;block-progression:tb;writing-mode:lr-tb;text-anchor:start;baseline-shift:baseline;color:#000000;fill:#3e2f2f;fill-opacity:1;stroke:none;stroke-width:0.59732562000000000;marker:none;visibility:visible;display:inline;overflow:visible;enable-background:accumulate;font-family:Sans;-inkscape-font-specification:Sans"
       d="M 118.23828 58.501953 L 90.214844 86.380859 C 90.608548 86.521224 90.979842 86.734547 91.292969 87.042969 C 91.637873 87.394365 91.875146 87.806971 92.013672 88.242188 L 120.125 60.277344 C 119.65144 60.233176 119.18885 60.041078 118.82422 59.675781 C 118.49762 59.346673 118.30474 58.932299 118.23828 58.501953 z "
       transform="translate(0,924.36218)"
       id="path3692" />
    <path
       inkscape:connector-curvature="0"
       id="path3696"
       d="m 122.50648,984.67372 c -1.18088,1.14651 -3.07135,1.18898 -4.24227,0.0161 -1.1543,-1.15173 -1.22463,-3.06597 -0.0161,-4.24227 1.17156,-1.18668 3.06573,-1.17106 4.24226,-0.0161 1.16722,1.16454 1.17759,3.0617 0.0161,4.24226 z m -1.25815,-1.24864 c 0.47297,-0.48073 0.45153,-1.27737 -0.007,-1.73547 -0.48066,-0.47187 -1.2703,-0.46566 -1.73547,0.007 -0.49492,0.48011 -0.46445,1.26444 0.007,1.73547 0.4781,0.47892 1.24477,0.46965 1.73548,-0.007 z"
       style="font-size:medium;font-style:normal;font-variant:normal;font-weight:normal;font-stretch:normal;text-indent:0;text-align:start;text-decoration:none;line-height:normal;letter-spacing:normal;word-spacing:normal;text-transform:none;direction:ltr;block-progression:tb;writing-mode:lr-tb;text-anchor:start;baseline-shift:baseline;color:#000000;fill:#3e2f2f;fill-opacity:1;stroke:none;stroke-width:0.41700417000000001;marker:none;visibility:visible;display:inline;overflow:visible;enable-background:accumulate;font-family:Sans;-inkscape-font-specification:Sans" />
    <path
       style="font-size:medium;font-style:normal;font-variant:normal;font-weight:normal;font-stretch:normal;text-indent:0;text-align:start;text-decoration:none;line-height:normal;letter-spacing:normal;word-spacing:normal;text-transform:none;direction:ltr;block-progression:tb;writing-mode:lr-tb;text-anchor:start;baseline-shift:baseline;color:#000000;fill:#3e2f2f;fill-opacity:1;stroke:none;stroke-width:0.59732562000000000;marker:none;visibility:visible;display:inline;overflow:visible;enable-background:accumulate;font-family:Sans;-inkscape-font-specification:Sans"
       d="M 67.863281 8.1015625 L 39.814453 36.005859 C 40.22671 36.147791 40.615223 36.374514 40.945312 36.695312 C 41.272633 37.034107 41.494814 37.431216 41.634766 37.847656 L 69.726562 9.9042969 C 69.262247 9.8551528 68.811 9.6612623 68.453125 9.3027344 C 68.119791 8.9663581 67.924943 8.5419159 67.863281 8.1015625 z "
       transform="translate(0,924.36218)"
       id="path3700" />
    <path
       inkscape:connector-curvature="0"
       id="path3704"
       d="m 72.134271,934.30169 c -1.180878,1.14651 -3.071343,1.18898 -4.242263,0.0161 -1.154302,-1.15173 -1.224628,-3.06597 -0.0161,-4.24227 1.171562,-1.18668 3.065734,-1.17106 4.242263,-0.0161 1.167216,1.16454 1.177592,3.0617 0.01609,4.24226 z m -1.258151,-1.24864 c 0.472977,-0.48073 0.451535,-1.27737 -0.0066,-1.73547 -0.480663,-0.47187 -1.270298,-0.46566 -1.735471,0.007 -0.494916,0.48011 -0.46445,1.26444 0.0066,1.73547 0.478099,0.47892 1.244767,0.46965 1.735471,-0.007 z"
       style="font-size:medium;font-style:normal;font-variant:normal;font-weight:normal;font-stretch:normal;text-indent:0;text-align:start;text-decoration:none;line-height:normal;letter-spacing:normal;word-spacing:normal;text-transform:none;direction:ltr;block-progression:tb;writing-mode:lr-tb;text-anchor:start;baseline-shift:baseline;color:#000000;fill:#3e2f2f;fill-opacity:1;stroke:none;stroke-width:0.41700417000000001;marker:none;visibility:visible;display:inline;overflow:visible;enable-background:accumulate;font-family:Sans;-inkscape-font-specification:Sans" />
    <path
       style="font-size:medium;font-style:normal;font-variant:normal;font-weight:normal;font-stretch:normal;text-indent:0;text-align:start;text-decoration:none;line-height:normal;letter-spacing:normal;word-spacing:normal;text-transform:none;direction:ltr;block-progression:tb;writing-mode:lr-tb;text-anchor:start;baseline-shift:baseline;color:#000000;fill:#3e2f2f;fill-opacity:1;stroke:none;stroke-width:0.59732562000000000;marker:none;visibility:visible;display:inline;overflow:visible;enable-background:accumulate;font-family:Sans;-inkscape-font-specification:Sans"
       d="M 35.980469 39.748047 L 7.8808594 67.705078 C 8.3523786 67.750367 8.8126495 67.942846 9.1757812 68.306641 C 9.5038384 68.63722 9.696199 69.053906 9.7617188 69.486328 L 37.800781 41.59375 C 37.401295 41.449143 37.022905 41.224072 36.699219 40.90625 C 36.358809 40.569556 36.122269 40.171324 35.980469 39.748047 z "
       transform="translate(0,924.36218)"
       id="path3710" />
    <path
       style="font-size:medium;font-style:normal;font-variant:normal;font-weight:normal;font-stretch:normal;text-indent:0;text-align:start;text-decoration:none;line-height:normal;letter-spacing:normal;word-spacing:normal;text-transform:none;direction:ltr;block-progression:tb;writing-mode:lr-tb;text-anchor:start;baseline-shift:baseline;color:#000000;fill:#3e2f2f;fill-opacity:1;stroke:none;stroke-width:0.41700417000000001;marker:none;visibility:visible;display:inline;overflow:visible;enable-background:accumulate;font-family:Sans;-inkscape-font-specification:Sans"
       d="m 5.4934355,992.03329 c 1.1808782,-1.14651 3.0713436,-1.18898 4.2422631,-0.0161 1.1543014,1.15173 1.2246284,3.06597 0.016096,4.24227 -1.1715624,1.18668 -3.0657346,1.17106 -4.2422631,0.0161 -1.1672163,-1.16454 -1.1775922,-3.0617 -0.016095,-4.24226 z m 1.2581514,1.24864 c -0.472977,0.48073 -0.4515351,1.27737 0.00658,1.73547 0.4806639,0.47187 1.2702988,0.46566 1.7354713,-0.007 0.494916,-0.48011 0.46445,-1.26444 -0.00658,-1.73547 -0.478099,-0.47892 -1.2447675,-0.46965 -1.7354713,0.007 z"
       id="path3714"
       inkscape:connector-curvature="0" />
    <path
       style="font-size:medium;font-style:normal;font-variant:normal;font-weight:normal;font-stretch:normal;text-indent:0;text-align:start;text-decoration:none;line-height:normal;letter-spacing:normal;word-spacing:normal;text-transform:none;direction:ltr;block-progression:tb;writing-mode:lr-tb;text-anchor:start;baseline-shift:baseline;color:#000000;fill:#3e2f2f;fill-opacity:1;stroke:none;stroke-width:0.59732562000000000;marker:none;visibility:visible;display:inline;overflow:visible;enable-background:accumulate;font-family:Sans;-inkscape-font-specification:Sans"
       d="M 86.365234 90.138672 L 58.261719 118.09766 C 58.735963 118.1415 59.199329 118.33524 59.564453 118.70117 L 59.564453 118.69531 C 59.891537 119.02489 60.084262 119.44006 60.150391 119.87109 L 88.193359 91.974609 C 87.782029 91.832283 87.394391 91.598632 87.064453 91.267578 C 86.735225 90.937372 86.506363 90.549897 86.365234 90.138672 z "
       transform="translate(0,924.36218)"
       id="path3718" />
    <path
       style="font-size:medium;font-style:normal;font-variant:normal;font-weight:normal;font-stretch:normal;text-indent:0;text-align:start;text-decoration:none;line-height:normal;letter-spacing:normal;word-spacing:normal;text-transform:none;direction:ltr;block-progression:tb;writing-mode:lr-tb;text-anchor:start;baseline-shift:baseline;color:#000000;fill:#3e2f2f;fill-opacity:1;stroke:none;stroke-width:0.41700417000000001;marker:none;visibility:visible;display:inline;overflow:visible;enable-background:accumulate;font-family:Sans;-inkscape-font-specification:Sans"
       d="m 55.882723,1042.4226 c 1.180878,-1.1465 3.071344,-1.189 4.242263,-0.016 1.154302,1.1517 1.224629,3.0659 0.0161,4.2422 -1.171563,1.1867 -3.065735,1.1711 -4.242263,0.016 -1.167217,-1.1645 -1.177592,-3.0617 -0.0161,-4.2422 z m 1.258152,1.2486 c -0.472977,0.4807 -0.451535,1.2774 0.0066,1.7355 0.480664,0.4719 1.270299,0.4657 1.735471,-0.01 0.494916,-0.4801 0.46445,-1.2644 -0.0066,-1.7355 -0.478099,-0.4789 -1.244768,-0.4696 -1.735471,0.01 z"
       id="path3722"
       inkscape:connector-curvature="0" />
    <path
       inkscape:connector-curvature="0"
       d="m 90.227559,1012.4872 c 0.584882,0.5766 0.600944,1.5246 0.0021,2.1123 -0.582082,0.568 -1.531253,0.5597 -2.116445,-0.034 -0.567756,-0.5757 -0.566996,-1.5057 0.03211,-2.0766 0.577854,-0.5848 1.513906,-0.5944 2.082218,-0"
       style="fill:#3e2f2f;fill-opacity:1;fill-rule:nonzero;stroke:none"
       id="path3736" />
    <path
       inkscape:connector-curvature="0"
       d="m 39.86286,962.12204 c 0.588413,0.58003 0.573687,1.52895 0.0086,2.11882 -0.594239,0.56779 -1.551168,0.55581 -2.139985,-0.0412 -0.548361,-0.56266 -0.569147,-1.51191 0.009,-2.08411 0.598235,-0.57183 1.550857,-0.5726 2.12242,0.006"
       style="fill:#3e2f2f;fill-opacity:1;fill-rule:nonzero;stroke:none"
       id="path3744" />
  </g>
</svg>
